<svg viewBox="0 0 100 100" xmlns="http://www.w3.org/2000/svg"><path fill="white" d="M31.25 40.625c-7.754 0-14.062 6.309-14.062 14.062s6.309 14.062 14.062 14.062 14.062-6.309 14.062-14.062-6.309-14.062-14.062-14.062zm0 25c-6.031 0-10.938-4.906-10.938-10.938s4.906-10.938 10.938-10.938 10.938 4.906 10.938 10.938-4.906 10.938-10.938 10.938z"/><path fill="white" d="M31.25 48.438c-3.445 0-6.25 2.805-6.25 6.25s2.805 6.25 6.25 6.25 6.25-2.805 6.25-6.25-2.805-6.25-6.25-6.25zm0 9.375c-1.723 0-3.125-1.402-3.125-3.125s1.402-3.125 3.125-3.125 3.125 1.402 3.125 3.125-1.402 3.125-3.125 3.125z"/><path fill="white" d="M93.75 35.938h-1.563V21.876a4.691 4.691 0 0 0-4.687-4.687h-75a4.691 4.691 0 0 0-4.688 4.687v14.062H6.25a4.691 4.691 0 0 0-4.688 4.688v23.438c0 2.035 1.313 3.753 3.125 4.398v1.851c0 4.31 3.504 7.813 7.813 7.813v1.563H9.375v3.125h9.375v-3.125h-3.125v-1.563h68.75v1.563H81.25v3.125h9.375v-3.125H87.5v-1.563c4.309 0 7.813-3.504 7.813-7.813v-1.851c1.812-.649 3.124-2.367 3.124-4.399V40.627a4.691 4.691 0 0 0-4.687-4.688zM10.938 21.876c0-.86.7-1.562 1.563-1.562h75c.863 0 1.562.703 1.562 1.562v14.062h-3.125v-12.5h-3.125v12.5h-3.125v-12.5h-3.125v12.5h-3.125v-12.5h-3.125v12.5h-3.125v-12.5h-3.125v12.5h-3.125v-12.5h-3.125v12.5h-3.125v-12.5h-3.125v12.5h-3.125v-12.5h-3.125v12.5h-2.832c-.082-.05-.168-.09-.25-.14l-.043-.024V23.438h-3.125v10.844a22.069 22.069 0 0 0-3.125-.95v-9.894h-3.125v9.453c-.52-.035-1.035-.078-1.562-.078s-1.043.043-1.563.078v-9.453h-3.125v9.895a21.571 21.571 0 0 0-3.125.949V23.438h-3.125v12.336a.263.263 0 0 0-.043.027c-.082.047-.168.09-.25.14l-2.832-.003v-12.5h-3.125v12.5h-3.125zM50 54.688c0 4.383-1.523 8.406-4.05 11.602a19.077 19.077 0 0 1-2.891 2.941c-.13.106-.266.196-.399.297-.379.293-.765.575-1.164.836-.234.153-.477.293-.715.438-.316.187-.637.37-.96.539a21.312 21.312 0 0 1-1.8.809c-.287.109-.572.218-.86.316-.356.117-.716.219-1.075.312-.274.075-.547.153-.824.211-.422.094-.852.156-1.278.219-.23.035-.46.082-.695.105-.676.082-1.355.125-2.039.125s-1.363-.043-2.035-.117c-.235-.023-.461-.07-.696-.105-.43-.063-.859-.13-1.277-.219-.281-.062-.55-.14-.824-.21-.36-.099-.723-.196-1.074-.313a16.1 16.1 0 0 1-.86-.317 17.67 17.67 0 0 1-.972-.41 16.113 16.113 0 0 1-1.79-.937c-.242-.141-.484-.282-.714-.438a21.879 21.879 0 0 1-1.164-.836c-.133-.101-.27-.195-.399-.297a18.908 18.908 0 0 1-2.89-2.941c-2.532-3.203-4.055-7.227-4.055-11.61 0-6.515 3.348-12.265 8.406-15.624l.035-.024c.141-.093.29-.175.434-.265 5.965-3.703 13.777-3.703 19.742 0 .144.09.293.172.434.265l.039.024c5.062 3.36 8.41 9.11 8.41 15.625zM4.688 40.626c0-.86.7-1.562 1.563-1.562h9.718c-4.062 3.972-6.593 9.507-6.593 15.625 0 3.984 1.09 7.714 2.96 10.938H6.251c-.864 0-1.563-.7-1.563-1.563zm7.813 34.375a4.691 4.691 0 0 1-4.688-4.688v-1.562h6.703a21.146 21.146 0 0 0 1.676 1.766c.176.168.355.324.531.484.426.379.867.742 1.32 1.086.23.176.461.355.696.52.472.331.965.636 1.464.93.204.12.403.257.61.37.672.367 1.367.692 2.082.989.074.03.14.074.215.101zm79.688-4.688a4.691 4.691 0 0 1-4.688 4.688H39.388c.074-.031.14-.07.215-.102.71-.296 1.41-.62 2.082-.988.21-.113.406-.25.61-.37.5-.294.991-.599 1.464-.93.238-.165.465-.344.695-.52a21.9 21.9 0 0 0 1.32-1.086 22.49 22.49 0 0 0 2.187-2.227c.009-.007.017-.015.02-.023l44.208-.004zm3.125-6.25c0 .864-.7 1.563-1.563 1.563H50.165a21.716 21.716 0 0 0 2.96-10.938c0-6.117-2.53-11.652-6.593-15.625h47.22c.862 0 1.562.703 1.562 1.563z"/><path fill="white" d="M87.5 42.188h-25a4.691 4.691 0 0 0-4.688 4.688V62.5h34.376V46.876a4.691 4.691 0 0 0-4.688-4.688zm-26.562 12.5h3.125v4.688h-3.125zm21.875 0v4.688h-3.125v-4.688zm-6.25 4.688h-3.125v-4.688h3.125zm-6.25 0h-3.125v-4.688h3.125zm18.75 0h-3.125v-4.688h3.125zm-28.125-7.813v-4.688c0-.859.7-1.562 1.563-1.562h25c.863 0 1.562.703 1.562 1.563v4.687z"/></svg>
